<svg width="169" height="36" viewBox="0 0 169 36" fill="none" xmlns="http://www.w3.org/2000/svg">
<path d="M24.672 9.152L20.28 26H15.312L12.624 14.912L9.84 26H4.872L0.6 9.152H4.992L7.416 21.416L10.416 9.152H14.928L17.808 21.416L20.256 9.152H24.672ZM25.9142 19.28C25.9142 17.904 26.1702 16.696 26.6822 15.656C27.2102 14.616 27.9222 13.816 28.8182 13.256C29.7142 12.696 30.7142 12.416 31.8182 12.416C32.7622 12.416 33.5862 12.608 34.2902 12.992C35.0102 13.376 35.5622 13.88 35.9462 14.504V12.608H40.0502V26H35.9462V24.104C35.5462 24.728 34.9862 25.232 34.2662 25.616C33.5622 26 32.7382 26.192 31.7942 26.192C30.7062 26.192 29.7142 25.912 28.8182 25.352C27.9222 24.776 27.2102 23.968 26.6822 22.928C26.1702 21.872 25.9142 20.656 25.9142 19.28ZM35.9462 19.304C35.9462 18.28 35.6582 17.472 35.0822 16.88C34.5222 16.288 33.8342 15.992 33.0182 15.992C32.2022 15.992 31.5062 16.288 30.9302 16.88C30.3702 17.456 30.0902 18.256 30.0902 19.28C30.0902 20.304 30.3702 21.12 30.9302 21.728C31.5062 22.32 32.2022 22.616 33.0182 22.616C33.8342 22.616 34.5222 22.32 35.0822 21.728C35.6582 21.136 35.9462 20.328 35.9462 19.304ZM56.6993 12.608L48.2993 32.36H43.8833L46.9553 25.544L41.5072 12.608H46.0913L49.1873 20.984L52.2593 12.608H56.6993ZM63.6313 26.192C62.4633 26.192 61.4233 25.992 60.5113 25.592C59.5993 25.192 58.8793 24.648 58.3513 23.96C57.8233 23.256 57.5273 22.472 57.4633 21.608H61.5193C61.5673 22.072 61.7833 22.448 62.1673 22.736C62.5513 23.024 63.0233 23.168 63.5833 23.168C64.0953 23.168 64.4873 23.072 64.7593 22.88C65.0473 22.672 65.1913 22.408 65.1913 22.088C65.1913 21.704 64.9913 21.424 64.5913 21.248C64.1913 21.056 63.5433 20.848 62.6473 20.624C61.6873 20.4 60.8873 20.168 60.2473 19.928C59.6073 19.672 59.0553 19.28 58.5913 18.752C58.1273 18.208 57.8953 17.48 57.8953 16.568C57.8953 15.8 58.1033 15.104 58.5193 14.48C58.9513 13.84 59.5753 13.336 60.3913 12.968C61.2233 12.6 62.2073 12.416 63.3433 12.416C65.0233 12.416 66.3433 12.832 67.3033 13.664C68.2793 14.496 68.8393 15.6 68.9833 16.976H65.1913C65.1273 16.512 64.9193 16.144 64.5673 15.872C64.2313 15.6 63.7833 15.464 63.2233 15.464C62.7433 15.464 62.3753 15.56 62.1193 15.752C61.8633 15.928 61.7353 16.176 61.7353 16.496C61.7353 16.88 61.9353 17.168 62.3353 17.36C62.7513 17.552 63.3913 17.744 64.2553 17.936C65.2473 18.192 66.0553 18.448 66.6793 18.704C67.3033 18.944 67.8473 19.344 68.3113 19.904C68.7913 20.448 69.0393 21.184 69.0553 22.112C69.0553 22.896 68.8313 23.6 68.3833 24.224C67.9513 24.832 67.3193 25.312 66.4873 25.664C65.6713 26.016 64.7193 26.192 63.6313 26.192ZM75.6701 14.504C76.0541 13.88 76.6061 13.376 77.3261 12.992C78.0461 12.608 78.8701 12.416 79.7981 12.416C80.9021 12.416 81.9021 12.696 82.7981 13.256C83.6941 13.816 84.3981 14.616 84.9101 15.656C85.4381 16.696 85.7021 17.904 85.7021 19.28C85.7021 20.656 85.4381 21.872 84.9101 22.928C84.3981 23.968 83.6941 24.776 82.7981 25.352C81.9021 25.912 80.9021 26.192 79.7981 26.192C78.8541 26.192 78.0301 26.008 77.3261 25.64C76.6221 25.256 76.0701 24.752 75.6701 24.128V26H71.5661V8.24H75.6701V14.504ZM81.5261 19.28C81.5261 18.256 81.2381 17.456 80.6621 16.88C80.1021 16.288 79.4061 15.992 78.5741 15.992C77.7581 15.992 77.0621 16.288 76.4861 16.88C75.9261 17.472 75.6461 18.28 75.6461 19.304C75.6461 20.328 75.9261 21.136 76.4861 21.728C77.0621 22.32 77.7581 22.616 78.5741 22.616C79.3901 22.616 80.0861 22.32 80.6621 21.728C81.2381 21.12 81.5261 20.304 81.5261 19.28Z" fill="#995524"/>
<path d="M123.672 19.28C123.672 17.904 123.928 16.696 124.44 15.656C124.968 14.616 125.68 13.816 126.576 13.256C127.472 12.696 128.472 12.416 129.576 12.416C130.52 12.416 131.344 12.608 132.048 12.992C132.768 13.376 133.32 13.88 133.704 14.504V12.608H137.808V26H133.704V24.104C133.304 24.728 132.744 25.232 132.024 25.616C131.32 26 130.496 26.192 129.552 26.192C128.464 26.192 127.472 25.912 126.576 25.352C125.68 24.776 124.968 23.968 124.44 22.928C123.928 21.872 123.672 20.656 123.672 19.28ZM133.704 19.304C133.704 18.28 133.416 17.472 132.84 16.88C132.28 16.288 131.592 15.992 130.776 15.992C129.96 15.992 129.264 16.288 128.688 16.88C128.128 17.456 127.848 18.256 127.848 19.28C127.848 20.304 128.128 21.12 128.688 21.728C129.264 22.32 129.96 22.616 130.776 22.616C131.592 22.616 132.28 22.32 132.84 21.728C133.416 21.136 133.704 20.328 133.704 19.304ZM148.937 12.464C150.505 12.464 151.753 12.976 152.681 14C153.625 15.008 154.097 16.4 154.097 18.176V26H150.017V18.728C150.017 17.832 149.785 17.136 149.321 16.64C148.857 16.144 148.233 15.896 147.449 15.896C146.665 15.896 146.041 16.144 145.577 16.64C145.113 17.136 144.881 17.832 144.881 18.728V26H140.777V12.608H144.881V14.384C145.297 13.792 145.857 13.328 146.561 12.992C147.265 12.64 148.057 12.464 148.937 12.464ZM162.397 26.192C161.229 26.192 160.189 25.992 159.277 25.592C158.365 25.192 157.645 24.648 157.117 23.96C156.589 23.256 156.293 22.472 156.229 21.608H160.285C160.333 22.072 160.549 22.448 160.933 22.736C161.317 23.024 161.789 23.168 162.349 23.168C162.861 23.168 163.253 23.072 163.525 22.88C163.813 22.672 163.957 22.408 163.957 22.088C163.957 21.704 163.757 21.424 163.357 21.248C162.957 21.056 162.309 20.848 161.413 20.624C160.453 20.4 159.653 20.168 159.013 19.928C158.373 19.672 157.821 19.28 157.357 18.752C156.893 18.208 156.661 17.48 156.661 16.568C156.661 15.8 156.869 15.104 157.285 14.48C157.717 13.84 158.341 13.336 159.157 12.968C159.989 12.6 160.973 12.416 162.109 12.416C163.789 12.416 165.109 12.832 166.069 13.664C167.045 14.496 167.605 15.6 167.749 16.976H163.957C163.893 16.512 163.685 16.144 163.333 15.872C162.997 15.6 162.549 15.464 161.989 15.464C161.509 15.464 161.141 15.56 160.885 15.752C160.629 15.928 160.501 16.176 160.501 16.496C160.501 16.88 160.701 17.168 161.101 17.36C161.517 17.552 162.157 17.744 163.021 17.936C164.013 18.192 164.821 18.448 165.445 18.704C166.069 18.944 166.613 19.344 167.077 19.904C167.557 20.448 167.805 21.184 167.821 22.112C167.821 22.896 167.597 23.6 167.149 24.224C166.717 24.832 166.085 25.312 165.253 25.664C164.437 26.016 163.485 26.192 162.397 26.192Z" fill="#995524"/>
<path d="M91 19.3915C92.0209 24.8528 97.8977 29.0415 104.997 29.0415C112.097 29.0415 117.974 24.8528 118.995 19.3915C119.031 19.1957 118.872 19.015 118.664 19.015H91.3311L91 19.3915V19.3915Z" fill="#995524"/>
<path d="M91.3311 17.025H118.664C118.872 17.025 119.031 16.8458 118.995 16.6499C117.974 11.1887 112.097 7 104.997 7C97.899 7 92.0209 11.1887 91 16.6499L91.3311 17.025V17.025Z" fill="#995524"/>
</svg>
